# xmcd
#
# Track frame offsets:
#	150
#	12767
#	24645
#	31764
#	48003
#	59132
#	70628
#	78610
#	91761
#	107920
#	116739
#	124180
#	135702
#	150908
#	165858
#	176788
#	194375
#
# Disc length: 2749 seconds
#
# Revision: 3
# Processed by: cddbd v1.4PL0 Copyright (c) Steve Scherf et al.
# Submitted via: MusicWizard 6.0.1
#
DISCID=d50abb11
DTITLE=Various Artist - In MARLENE
DYEAR=1900
DGENRE=Musical
TTITLE0=Judy Winter - Wenn Ich Mir Was Wünschen Dürfte
TTITLE1=Judy Winter - You Do Something To Me
TTITLE2=Judy Winter - Nimm Dich In Acht Vor Blonden Frau'n
TTITLE3=Judy Winter - Illusions
TTITLE4=Judy Winter - Honeysuckle Rose
TTITLE5=Judy Winter - Mutter, Hast Du Mir Vergeben
TTITLE6=Judy Winter - Kinder Heut' Abend - The Boys In The Backroom
TTITLE7=Judy Winter - Ich Weiß Nicht, Zu Wem Ich Gehöre
TTITLE8=Judy Winter - Allein In Einer Großen Stadt
TTITLE9=Judy Winter - Go Away From My Window
TTITLE10=Judy Winter - Ne Me Quitte Pas
TTITLE11=Judy Winter - Mein Mann Ist Verhindert
TTITLE12=Judy Winter - Lili Marleen
TTITLE13=Judy Winter - Sag Mir, Wo Die Blumen Sind
TTITLE14=Judy Winter - The Laziest Girl In Town
TTITLE15=Judy Winter - Frag Nicht, Warum Ich Gehe
TTITLE16=Judy Winter - Ich Hab' Noch Einen Koffer In Berlin
EXTD=
EXTT0=
EXTT1=
EXTT2=
EXTT3=
EXTT4=
EXTT5=
EXTT6=
EXTT7=
EXTT8=
EXTT9=
EXTT10=
EXTT11=
EXTT12=
EXTT13=
EXTT14=
EXTT15=
EXTT16=
PLAYORDER=
